<svg width="184" height="184" viewBox="0 0 184 184" fill="none" xmlns="http://www.w3.org/2000/svg">
<rect width="4.97297" height="4.97297" fill="#DADADA"/>
<rect x="29.8379" width="4.97297" height="4.97297" fill="#DADADA"/>
<rect x="59.6758" width="4.97297" height="4.97297" fill="#DADADA"/>
<rect x="89.5134" width="4.97297" height="4.97297" fill="#DADADA"/>
<rect x="119.351" width="4.97297" height="4.97297" fill="#DADADA"/>
<rect x="149.189" width="4.97297" height="4.97297" fill="#DADADA"/>
<rect x="179.027" width="4.97297" height="4.97297" fill="#DADADA"/>
<rect y="29.8379" width="4.97297" height="4.97297" fill="#DADADA"/>
<rect x="29.8379" y="29.8379" width="4.97297" height="4.97297" fill="#DADADA"/>
<rect x="59.6758" y="29.8379" width="4.97297" height="4.97297" fill="#DADADA"/>
<rect x="89.5134" y="29.8379" width="4.97297" height="4.97297" fill="#DADADA"/>
<rect x="119.351" y="29.8379" width="4.97297" height="4.97297" fill="#DADADA"/>
<rect x="149.189" y="29.8379" width="4.97297" height="4.97297" fill="#DADADA"/>
<rect x="179.027" y="29.8379" width="4.97297" height="4.97297" fill="#DADADA"/>
<rect y="59.6758" width="4.97297" height="4.97297" fill="#DADADA"/>
<rect x="29.8379" y="59.6758" width="4.97297" height="4.97297" fill="#DADADA"/>
<rect x="59.6758" y="59.6758" width="4.97297" height="4.97297" fill="#DADADA"/>
<rect x="89.5134" y="59.6758" width="4.97297" height="4.97297" fill="#DADADA"/>
<rect x="119.351" y="59.6758" width="4.97297" height="4.97297" fill="#DADADA"/>
<rect x="149.189" y="59.6758" width="4.97297" height="4.97297" fill="#DADADA"/>
<rect x="179.027" y="59.6758" width="4.97297" height="4.97297" fill="#DADADA"/>
<rect y="89.5134" width="4.97297" height="4.97297" fill="#DADADA"/>
<rect x="29.8379" y="89.5134" width="4.97297" height="4.97297" fill="#DADADA"/>
<rect x="59.6758" y="89.5134" width="4.97297" height="4.97297" fill="#DADADA"/>
<rect x="89.5134" y="89.5134" width="4.97297" height="4.97297" fill="#DADADA"/>
<rect x="119.351" y="89.5134" width="4.97297" height="4.97297" fill="#DADADA"/>
<rect x="149.189" y="89.5134" width="4.97297" height="4.97297" fill="#DADADA"/>
<rect x="179.027" y="89.5134" width="4.97297" height="4.97297" fill="#DADADA"/>
<rect y="119.351" width="4.97297" height="4.97297" fill="#DADADA"/>
<rect x="29.8379" y="119.351" width="4.97297" height="4.97297" fill="#DADADA"/>
<rect x="59.6758" y="119.351" width="4.97297" height="4.97297" fill="#DADADA"/>
<rect x="89.5134" y="119.351" width="4.97297" height="4.97297" fill="#DADADA"/>
<rect x="119.351" y="119.351" width="4.97297" height="4.97297" fill="#DADADA"/>
<rect x="149.189" y="119.351" width="4.97297" height="4.97297" fill="#DADADA"/>
<rect x="179.027" y="119.351" width="4.97297" height="4.97297" fill="#DADADA"/>
<rect y="149.189" width="4.97297" height="4.97297" fill="#DADADA"/>
<rect x="29.8379" y="149.189" width="4.97297" height="4.97297" fill="#DADADA"/>
<rect x="59.6758" y="149.189" width="4.97297" height="4.97297" fill="#DADADA"/>
<rect x="89.5134" y="149.189" width="4.97297" height="4.97297" fill="#DADADA"/>
<rect x="119.351" y="149.189" width="4.97297" height="4.97297" fill="#DADADA"/>
<rect x="149.189" y="149.189" width="4.97297" height="4.97297" fill="#DADADA"/>
<rect x="179.027" y="149.189" width="4.97297" height="4.97297" fill="#DADADA"/>
<rect y="179.027" width="4.97297" height="4.97297" fill="#DADADA"/>
<rect x="29.8379" y="179.027" width="4.97297" height="4.97297" fill="#DADADA"/>
<rect x="59.6758" y="179.027" width="4.97297" height="4.97297" fill="#DADADA"/>
<rect x="89.5134" y="179.027" width="4.97297" height="4.97297" fill="#DADADA"/>
<rect x="119.351" y="179.027" width="4.97297" height="4.97297" fill="#DADADA"/>
<rect x="149.189" y="179.027" width="4.97297" height="4.97297" fill="#DADADA"/>
<rect x="179.027" y="179.027" width="4.97297" height="4.97297" fill="#DADADA"/>
</svg>
