<svg width="19" height="20" viewBox="0 0 19 20" fill="none" xmlns="http://www.w3.org/2000/svg">
<g clip-path="url(#clip0_1_997)">
<path d="M18.5655 17.9768L13.2207 12.632C14.256 11.3531 14.8794 9.72813 14.8794 7.95828C14.8794 3.85628 11.5417 0.518585 7.43966 0.518585C3.33765 0.518585 0 3.85624 0 7.95825C0 12.0603 3.33769 15.3979 7.4397 15.3979C9.20955 15.3979 10.8345 14.7746 12.1134 13.7393L17.4582 19.0841C17.6109 19.2368 17.8114 19.3136 18.0119 19.3136C18.2124 19.3136 18.4129 19.2368 18.5656 19.0841C18.8718 18.7779 18.8718 18.283 18.5655 17.9768ZM7.4397 13.8317C4.20068 13.8317 1.56626 11.1973 1.56626 7.95825C1.56626 4.71923 4.20068 2.08481 7.4397 2.08481C10.6787 2.08481 13.3131 4.71923 13.3131 7.95825C13.3131 11.1973 10.6787 13.8317 7.4397 13.8317Z" fill="white"/>
</g>
<defs>
<clipPath id="clip0_1_997">
<rect width="18.7952" height="18.7952" fill="white" transform="translate(0 0.518074)"/>
</clipPath>
</defs>
</svg>
