<svg width="31" height="31" viewBox="0 0 31 31" fill="none" xmlns="http://www.w3.org/2000/svg">
<path d="M24.1084 14.2904L10.313 0.49524C9.9939 0.175917 9.56797 0 9.11381 0C8.65966 0 8.23372 0.175917 7.91465 0.49524L6.89872 1.51092C6.23764 2.17275 6.23764 3.24842 6.89872 3.90924L18.483 15.4936L6.88586 27.0908C6.56679 27.4101 6.39062 27.8358 6.39062 28.2897C6.39062 28.7441 6.56679 29.1698 6.88586 29.4893L7.9018 30.5048C8.22112 30.8241 8.6468 31 9.10096 31C9.55512 31 9.98105 30.8241 10.3001 30.5048L24.1084 16.697C24.4282 16.3767 24.6039 15.949 24.6029 15.4943C24.6039 15.0379 24.4282 14.6105 24.1084 14.2904Z" fill="#242222"/>
</svg>
