<svg width="31" height="31" viewBox="0 0 31 31" fill="none" xmlns="http://www.w3.org/2000/svg">
<path d="M6.89163 16.7096L20.687 30.5048C21.0061 30.8241 21.432 31 21.8862 31C22.3403 31 22.7663 30.8241 23.0853 30.5048L24.1013 29.4891C24.7624 28.8272 24.7624 27.7516 24.1013 27.0908L12.517 15.5064L24.1141 3.90925C24.4332 3.58992 24.6094 3.16424 24.6094 2.71034C24.6094 2.25593 24.4332 1.83025 24.1141 1.51067L23.0982 0.49524C22.7789 0.175918 22.3532 1.47595e-06 21.899 1.51566e-06C21.4449 1.55536e-06 21.0189 0.175918 20.6999 0.495241L6.89163 14.303C6.5718 14.6233 6.39614 15.051 6.39715 15.5057C6.39614 15.9621 6.5718 16.3895 6.89163 16.7096Z" fill="#242222"/>
</svg>
