<svg width="27" height="27" viewBox="0 0 27 27" fill="none" xmlns="http://www.w3.org/2000/svg">
<g clip-path="url(#clip0_49_582)">
<path d="M2.56827 9.34761C2.90676 9.58647 3.92709 10.2959 5.62931 11.4755C7.33158 12.655 8.63564 13.5633 9.54154 14.2003C9.64107 14.2701 9.85252 14.4219 10.176 14.6558C10.4995 14.8899 10.7684 15.0791 10.9823 15.2234C11.1963 15.3676 11.4551 15.5294 11.7589 15.7085C12.0625 15.8875 12.3488 16.0221 12.6175 16.1113C12.8864 16.2011 13.1352 16.2456 13.3641 16.2456H13.3791H13.3942C13.6231 16.2456 13.8721 16.2011 14.1409 16.1113C14.4096 16.0221 14.6961 15.8874 14.9995 15.7085C15.303 15.5292 15.5618 15.3676 15.7759 15.2234C15.9899 15.0791 16.2585 14.8899 16.5822 14.6558C16.9056 14.4216 17.1173 14.2701 17.2168 14.2003C18.1325 13.5633 20.4621 11.9456 24.205 9.3473C24.9316 8.83983 25.5387 8.22749 26.0264 7.51071C26.5145 6.79425 26.7583 6.04264 26.7583 5.2563C26.7583 4.5992 26.5217 4.03671 26.0488 3.56888C25.576 3.10095 25.0159 2.86711 24.3691 2.86711H2.38903C1.62257 2.86711 1.03273 3.12589 0.619604 3.64346C0.206535 4.16113 0 4.80819 0 5.58459C0 6.21173 0.273845 6.89132 0.821274 7.62295C1.36865 8.35463 1.95117 8.92957 2.56827 9.34761Z" fill="white"/>
<path d="M25.2649 10.9452C22.0001 13.1549 19.521 14.8723 17.829 16.0968C17.2616 16.5148 16.8013 16.841 16.4478 17.0748C16.0943 17.3087 15.6241 17.5476 15.0367 17.7914C14.4495 18.0356 13.9022 18.1573 13.3944 18.1573H13.3792H13.3642C12.8565 18.1573 12.3089 18.0356 11.7217 17.7914C11.1345 17.5476 10.664 17.3087 10.3106 17.0748C9.95733 16.841 9.49688 16.5148 8.92952 16.0968C7.58556 15.1114 5.11185 13.3939 1.50829 10.9452C0.940729 10.5671 0.438016 10.1338 0 9.64614V21.5019C0 22.1593 0.233835 22.7215 0.701768 23.1893C1.1696 23.6574 1.73214 23.8913 2.38919 23.8913H24.3693C25.0262 23.8913 25.5887 23.6574 26.0566 23.1893C26.5246 22.7213 26.7583 22.1593 26.7583 21.5019V9.64614C26.3302 10.1237 25.8326 10.5571 25.2649 10.9452Z" fill="white"/>
</g>
<defs>
<clipPath id="clip0_49_582">
<rect width="26.7583" height="26.7583" fill="white"/>
</clipPath>
</defs>
</svg>
