<svg width="40" height="41" viewBox="0 0 40 41" fill="none" xmlns="http://www.w3.org/2000/svg">
<g clip-path="url(#clip0_135_5105)">
<path d="M3.83559 14.2117C4.34111 14.5685 5.86493 15.6279 8.40713 17.3896C10.9494 19.1512 12.897 20.5077 14.2499 21.4589C14.3985 21.5632 14.7143 21.7899 15.1974 22.1393C15.6806 22.4889 16.0821 22.7714 16.4015 22.9869C16.7212 23.2023 17.1077 23.444 17.5614 23.7115C18.0149 23.9788 18.4423 24.1799 18.8437 24.313C19.2452 24.4471 19.6169 24.5136 19.9587 24.5136H19.9812H20.0037C20.3455 24.5136 20.7173 24.4471 21.1188 24.313C21.5201 24.1799 21.9479 23.9786 22.401 23.7115C22.8544 23.4437 23.2409 23.2022 23.5606 22.9869C23.8803 22.7714 24.2814 22.4889 24.7648 22.1393C25.2478 21.7896 25.564 21.5632 25.7126 21.4589C27.0801 20.5077 30.5593 18.0917 36.1491 14.2113C37.2343 13.4534 38.141 12.5389 38.8694 11.4684C39.5983 10.3984 39.9623 9.2759 39.9623 8.10154C39.9623 7.12018 39.609 6.28013 38.9028 5.58145C38.1966 4.88261 37.3602 4.53339 36.3942 4.53339H3.56792C2.42324 4.53339 1.54233 4.91987 0.925351 5.69283C0.30845 6.46595 0 7.4323 0 8.59182C0 9.52842 0.408976 10.5434 1.22654 11.636C2.04402 12.7288 2.91399 13.5874 3.83559 14.2117Z" fill="#7497B5"/>
<path d="M37.732 16.5976C32.8562 19.8978 29.1538 22.4626 26.6268 24.2914C25.7794 24.9155 25.092 25.4028 24.564 25.7519C24.0361 26.1013 23.334 26.4581 22.4567 26.8222C21.5797 27.1868 20.7623 27.3685 20.004 27.3685H19.9812H19.9588C19.2006 27.3685 18.3828 27.1868 17.5058 26.8222C16.6288 26.4581 15.9262 26.1013 15.3985 25.7519C14.8708 25.4028 14.1832 24.9155 13.3358 24.2914C11.3287 22.8197 7.63432 20.2547 2.25257 16.5976C1.40494 16.0331 0.654158 15.3859 0 14.6576V32.3636C0 33.3454 0.349223 34.185 1.04806 34.8838C1.74674 35.5827 2.58687 35.9321 3.56815 35.9321H36.3945C37.3755 35.9321 38.2156 35.5827 38.9143 34.8838C39.6133 34.1848 39.9624 33.3455 39.9624 32.3636V14.6576C39.323 15.3708 38.5799 16.018 37.732 16.5976Z" fill="#7497B5"/>
</g>
<defs>
<clipPath id="clip0_135_5105">
<rect width="39.9623" height="39.9623" fill="white" transform="translate(0 0.251465)"/>
</clipPath>
</defs>
</svg>
