<svg width="16" height="16" viewBox="0 0 16 16" fill="none" xmlns="http://www.w3.org/2000/svg">
<g clip-path="url(#clip0_107_721)">
<path d="M8.62432 12.4444L15.7444 5.32424C15.9092 5.15956 16 4.93973 16 4.70532C16 4.47092 15.9092 4.25108 15.7444 4.0864L15.2202 3.56205C14.8786 3.22085 14.3234 3.22085 13.9823 3.56205L8.00332 9.54105L2.01768 3.55541C1.85287 3.39073 1.63316 3.2998 1.39888 3.2998C1.16435 3.2998 0.944645 3.39073 0.779703 3.55541L0.25561 4.07977C0.090798 4.24458 2.50106e-06 4.46428 2.49081e-06 4.69869C2.48057e-06 4.93309 0.090798 5.15293 0.25561 5.31761L7.38218 12.4444C7.54752 12.6095 7.76826 12.7002 8.00293 12.6997C8.2385 12.7002 8.45912 12.6095 8.62432 12.4444Z" fill="#332F2F"/>
</g>
<defs>
<clipPath id="clip0_107_721">
<rect width="16" height="16" fill="white" transform="translate(16) rotate(90)"/>
</clipPath>
</defs>
</svg>
