<svg width="23" height="28" viewBox="0 0 23 28" fill="none" xmlns="http://www.w3.org/2000/svg">
<path d="M18.4462 0.5H4.55384C2.03866 0.5 0 2.57537 0 5.14418V26.3959C0 27.2976 1.01384 27.8249 1.72933 27.2778L6.07179 23.9563H18.4462C20.9613 23.9563 23 21.8809 23 19.3121V5.14418C23 2.5791 20.965 0.5 18.4462 0.5ZM10.419 18.0531H5.71151C5.11452 18.0531 4.63068 17.5597 4.63068 16.9508C4.63068 16.342 5.11452 15.8486 5.71151 15.8486H10.419C11.016 15.8486 11.4999 16.342 11.4999 16.9508C11.4999 17.5597 11.016 18.0531 10.419 18.0531ZM17.2885 13.3306H5.71151C5.11452 13.3306 4.63068 12.8368 4.63068 12.2283C4.63068 11.6195 5.11452 11.126 5.71151 11.126H17.2885C17.8852 11.126 18.3693 11.6195 18.3693 12.2283C18.3693 12.8368 17.8855 13.3306 17.2885 13.3306ZM17.2885 8.60773H5.71151C5.11452 8.60773 4.63068 8.11429 4.63068 7.50546C4.63068 6.89691 5.11452 6.40319 5.71151 6.40319H17.2885C17.8852 6.40319 18.3693 6.89691 18.3693 7.50546C18.3693 8.11429 17.8855 8.60773 17.2885 8.60773Z" fill="#CFCFCF"/>
</svg>
