<svg width="26" height="26" viewBox="0 0 26 26" fill="none" xmlns="http://www.w3.org/2000/svg">
<path d="M17.2341 12.9999C17.2341 15.5454 15.1704 17.6091 12.6249 17.6091C10.0794 17.6091 8.0158 15.5454 8.0158 12.9999C8.0158 10.4544 10.0794 8.3908 12.6249 8.3908C15.1704 8.3908 17.2341 10.4544 17.2341 12.9999ZM17.2341 12.9999V14.7284C17.2341 16.3193 18.5238 17.6091 20.1148 17.6091C21.7057 17.6091 22.9955 16.3193 22.9955 14.7284V12.9999C22.9955 7.27244 18.3525 2.62939 12.6249 2.62939C6.89744 2.62939 2.25439 7.27244 2.25439 12.9999C2.25439 18.7275 6.89744 23.3705 12.6249 23.3705H17.2341" stroke="#CFCFCF" stroke-width="2.30456" stroke-linecap="round" stroke-linejoin="round"/>
</svg>
