<svg width="23" height="28" viewBox="0 0 23 28" fill="none" xmlns="http://www.w3.org/2000/svg">
<g clip-path="url(#clip0_105_525)">
<path d="M11.3591 13.506C13.1631 13.506 14.7251 12.8652 16.0015 11.6008C17.2778 10.3366 17.9248 8.7898 17.9248 7.00281C17.9248 5.21643 17.2778 3.66942 16.0013 2.40482C14.7247 1.14085 13.1629 0.5 11.3591 0.5C9.55497 0.5 7.99331 1.14085 6.71699 2.40503C5.44066 3.66921 4.79346 5.21622 4.79346 7.00281C4.79346 8.7898 5.44066 10.3368 6.71719 11.601C7.99372 12.865 9.55559 13.506 11.3591 13.506Z" fill="#CFCFCF"/>
<path d="M22.8472 21.2616C22.8104 20.7355 22.736 20.1616 22.6264 19.5555C22.5157 18.945 22.3733 18.3678 22.2027 17.8402C22.0266 17.295 21.787 16.7565 21.4909 16.2405C21.1835 15.7049 20.8224 15.2385 20.4173 14.8548C19.9937 14.4533 19.475 14.1305 18.8752 13.8951C18.2775 13.6609 17.6151 13.5422 16.9066 13.5422C16.6283 13.5422 16.3592 13.6553 15.8395 13.9904C15.5196 14.197 15.1455 14.436 14.7279 14.7003C14.3708 14.9256 13.887 15.1368 13.2895 15.328C12.7066 15.5148 12.1147 15.6095 11.5305 15.6095C10.9463 15.6095 10.3546 15.5148 9.77107 15.328C9.1742 15.137 8.69046 14.9259 8.33379 14.7005C7.92013 14.4387 7.54579 14.1997 7.22114 13.9902C6.70205 13.6551 6.43273 13.542 6.15446 13.542C5.4457 13.542 4.78352 13.6609 4.18602 13.8953C3.58665 14.1303 3.06776 14.4531 2.64371 14.855C2.23879 15.239 1.87754 15.7051 1.57058 16.2405C1.27464 16.7565 1.03505 17.2948 0.858694 17.8404C0.688366 18.368 0.545906 18.945 0.435265 19.5555C0.325665 20.1607 0.251211 20.7349 0.2144 21.2622C0.178214 21.7788 0.159912 22.315 0.159912 22.8566C0.159912 24.266 0.612249 25.407 1.50424 26.2485C2.3852 27.0788 3.55088 27.5001 4.96841 27.5001H18.0939C19.5114 27.5001 20.6766 27.079 21.5578 26.2485C22.45 25.4076 22.9024 24.2664 22.9024 22.8564C22.9021 22.3123 22.8836 21.7757 22.8472 21.2616Z" fill="#CFCFCF"/>
</g>
<defs>
<clipPath id="clip0_105_525">
<rect width="23" height="27" fill="white" transform="translate(0 0.5)"/>
</clipPath>
</defs>
</svg>
