<svg width="23" height="20" viewBox="0 0 23 20" fill="none" xmlns="http://www.w3.org/2000/svg">
<g clip-path="url(#clip0_105_571)">
<path d="M2.20828 6.53514C2.49923 6.74045 3.37625 7.35021 4.83939 8.36412C6.30257 9.37803 7.42347 10.1587 8.20214 10.7062C8.28768 10.7662 8.46944 10.8967 8.74748 11.0978C9.02557 11.299 9.25664 11.4616 9.4405 11.5856C9.6245 11.7096 9.84694 11.8487 10.108 12.0027C10.369 12.1565 10.6151 12.2722 10.8461 12.3488C11.0772 12.426 11.2911 12.4643 11.4878 12.4643H11.5007H11.5137C11.7104 12.4643 11.9244 12.426 12.1555 12.3488C12.3864 12.2722 12.6327 12.1564 12.8935 12.0027C13.1544 11.8485 13.3768 11.7096 13.5608 11.5856C13.7448 11.4616 13.9757 11.299 14.2539 11.0978C14.5319 10.8965 14.7139 10.7662 14.7994 10.7062C15.5865 10.1587 17.5889 8.76822 20.806 6.53487C21.4306 6.09867 21.9525 5.57234 22.3717 4.95624C22.7912 4.3404 23.0007 3.69436 23.0007 3.01846C23.0007 2.45365 22.7974 1.97017 22.3909 1.56805C21.9845 1.16584 21.5031 0.964844 20.9471 0.964844H2.05422C1.39541 0.964844 0.888408 1.18728 0.533311 1.63215C0.178259 2.07711 0.000732422 2.63329 0.000732422 3.30065C0.000732422 3.8397 0.236115 4.42384 0.706656 5.05271C1.17715 5.68163 1.67786 6.17581 2.20828 6.53514Z" fill="#CFCFCF"/>
<path d="M21.7171 7.90809C18.9108 9.80747 16.78 11.2836 15.3256 12.3362C14.8379 12.6954 14.4422 12.9758 14.1384 13.1768C13.8345 13.3779 13.4304 13.5832 12.9255 13.7928C12.4207 14.0026 11.9503 14.1072 11.5139 14.1072H11.5008H11.4879C11.0515 14.1072 10.5808 14.0026 10.0761 13.7928C9.57132 13.5832 9.16695 13.3779 8.8632 13.1768C8.55953 12.9758 8.16374 12.6954 7.67608 12.3362C6.52087 11.4891 4.39461 10.0129 1.29718 7.90809C0.809333 7.58316 0.377228 7.21071 0.000732422 6.7915V16.9821C0.000732422 17.5471 0.201725 18.0304 0.603935 18.4325C1.00605 18.8348 1.48959 19.0359 2.05435 19.0359H20.9473C21.5119 19.0359 21.9954 18.8348 22.3976 18.4325C22.7999 18.0302 23.0008 17.5472 23.0008 16.9821V6.7915C22.6328 7.20203 22.2051 7.57448 21.7171 7.90809Z" fill="#CFCFCF"/>
</g>
<defs>
<clipPath id="clip0_105_571">
<rect width="23" height="20" fill="white"/>
</clipPath>
</defs>
</svg>
