<svg width="26" height="26" viewBox="0 0 26 26" fill="none" xmlns="http://www.w3.org/2000/svg">
<path d="M17.2336 12.9999C17.2336 15.5454 15.1699 17.6091 12.6244 17.6091C10.0789 17.6091 8.01532 15.5454 8.01532 12.9999C8.01532 10.4544 10.0789 8.3908 12.6244 8.3908C15.1699 8.3908 17.2336 10.4544 17.2336 12.9999ZM17.2336 12.9999V14.7284C17.2336 16.3193 18.5233 17.6091 20.1143 17.6091C21.7052 17.6091 22.995 16.3193 22.995 14.7284V12.9999C22.995 7.27244 18.352 2.62939 12.6244 2.62939C6.89696 2.62939 2.25391 7.27244 2.25391 12.9999C2.25391 18.7275 6.89696 23.3705 12.6244 23.3705H17.2336" stroke="#8B8D8E" stroke-width="2.30456" stroke-linecap="round" stroke-linejoin="round"/>
</svg>
