<svg width="23" height="24" viewBox="0 0 23 24" fill="none" xmlns="http://www.w3.org/2000/svg">
<path d="M21.5877 16.7438C21.5287 16.697 17.25 13.6129 16.0756 13.8343C15.5149 13.9334 15.1944 14.3158 14.5511 15.0813C14.4476 15.2049 14.1989 15.501 14.0056 15.7116C13.599 15.579 13.2025 15.4176 12.8189 15.2286C10.8391 14.2648 9.23953 12.6652 8.27569 10.6854C8.08656 10.3019 7.92515 9.90533 7.79269 9.49875C8.004 9.30469 8.30012 9.056 8.42662 8.94962C9.1885 8.30994 9.57159 7.98937 9.67078 7.42731C9.87419 6.26294 6.79219 1.95475 6.75984 1.91594C6.62001 1.71618 6.43752 1.54999 6.22558 1.42942C6.01363 1.30884 5.77754 1.23688 5.53437 1.21875C4.28519 1.21875 0.71875 5.84534 0.71875 6.62447C0.71875 6.66975 0.784156 11.2726 6.46012 17.0463C12.2281 22.7158 16.8303 22.7812 16.8755 22.7812C17.6554 22.7812 22.2812 19.2148 22.2812 17.9656C22.2633 17.7233 22.1918 17.488 22.0718 17.2767C21.9519 17.0654 21.7865 16.8834 21.5877 16.7438Z" fill="#CFCFCF"/>
</svg>
