<svg width="23" height="24" viewBox="0 0 23 24" fill="none" xmlns="http://www.w3.org/2000/svg">
<g clip-path="url(#clip0_156_1738)">
<path d="M12.1234 23.4253C24.6338 22.7073 26.9596 5.08847 15.089 1.13202C11.8042 0.032695 8.03789 0.53272 5.16419 2.47123H5.165C3.83318 3.35674 2.70177 4.5116 1.84377 5.8613C0.985765 7.21101 0.420218 8.72558 0.183612 10.3073L0.182893 10.3068C-0.942984 17.3675 4.98149 23.8922 12.1234 23.4253ZM21.3825 16.1738C20.9741 17.1407 20.4252 18.042 19.7536 18.8485C19.7062 18.5658 19.837 18.2384 19.6421 17.9746C19.4306 17.5622 19.2347 17.1416 19.0143 16.7342C18.9324 16.5826 18.955 16.4956 19.0757 16.3865C20.3691 15.2516 19.2161 15.855 19.3431 14.233C19.3477 14.1892 19.339 14.145 19.3182 14.1062C19.2974 14.0673 19.2654 14.0356 19.2264 14.0152C18.6133 13.6237 17.8129 13.4893 17.1793 13.9243C16.3897 14.2975 15.2633 14.012 15.0079 13.1057C14.782 12.5032 14.8097 11.8949 14.8038 11.2796C14.8402 10.9478 15.2954 10.8921 15.2216 10.5086C15.2391 10.0217 15.0804 9.50762 15.5409 9.1898C15.5761 9.15865 15.6182 9.13616 15.6637 9.12412C15.7092 9.11207 15.7568 9.11079 15.8029 9.12039C16.2237 9.17128 16.6489 9.07211 17.0038 8.84035C17.3801 8.60177 17.8447 8.75621 18.2616 8.7019C18.4603 8.68775 18.6075 8.7461 18.7298 8.90077C18.9703 9.20444 19.3465 9.29361 19.6626 9.47806C19.7689 9.5401 19.826 9.46189 19.8759 9.39756C20.1414 9.05498 20.5484 8.93989 20.9052 8.74291C21.0995 8.63155 21.4892 9.05669 21.8209 9.07178C22.4819 11.3855 22.3285 13.9612 21.3825 16.1738ZM21.2271 7.47787C20.831 7.52998 21.0974 7.15367 20.893 6.95677C20.6877 6.77357 20.4924 6.57944 20.308 6.37521C20.2125 6.27324 20.1508 6.25685 20.0404 6.36578C19.7439 6.65912 19.7606 6.62799 20.1063 6.97852C20.51 7.42225 20.8142 7.41484 20.0838 7.72319C19.9176 7.79803 19.7607 7.96855 19.5793 7.72215C19.4695 7.57306 19.32 7.47288 19.3378 7.2432C19.365 6.88903 19.0948 6.63226 18.9698 6.32647C18.9325 6.23524 18.8665 6.29952 18.8313 6.34444C18.5683 6.68261 18.171 6.81334 17.811 7.0012C17.1894 7.54476 17.3313 7.48555 16.5063 7.46192C16.43 7.4652 16.4075 7.37311 16.3744 7.31929C15.959 6.63927 16.0395 6.4735 16.4699 5.83153C16.6282 5.73656 17.3276 5.84617 17.4598 5.98426C17.5192 6.04625 17.568 6.11849 17.6538 6.22657C17.7197 5.96333 17.6863 5.76163 17.6931 5.56294C17.8046 4.74765 18.4897 5.11507 18.976 4.93798C19.2059 4.76229 19.3002 4.67483 19.2515 4.58863C20.0645 5.43647 20.732 6.41267 21.2271 7.47787ZM19.1849 4.52039C18.853 4.30427 18.1156 4.07643 18.0959 3.5424C18.481 3.84299 18.8448 4.16977 19.1849 4.52039ZM3.91842 4.41707C4.5372 3.79739 5.22952 3.25579 5.97993 2.80437C6.23513 2.93465 6.4172 3.41392 6.73731 3.24362C7.07872 3.06447 7.44258 2.92238 7.68768 2.60205C7.82653 2.43336 8.06951 2.56247 8.25086 2.5113C8.96386 2.41477 9.15662 3.2266 9.42332 3.70955C9.39978 3.72936 9.38739 3.74836 9.37714 3.7472C8.75848 3.67739 8.19121 3.87603 7.63054 4.09193C7.44636 4.16286 7.3044 4.16888 7.18918 3.99153C7.04678 3.77222 6.86381 3.76588 6.63664 3.86049C6.42622 4.00922 5.67023 4.03492 5.72248 4.33343C5.77378 4.61387 5.55236 5.09189 6.05575 4.99634C6.29164 4.91427 6.49442 5.61132 6.63857 5.21057C6.9479 3.95725 8.25198 5.05096 9.25752 4.25014C9.62745 4.03065 9.9317 4.75362 10.0755 5.00829C10.1847 5.24723 10.2637 5.52853 10.6478 5.4452C10.407 5.68616 10.1644 5.9255 9.92627 6.16907C9.85718 6.23973 9.79438 6.21709 9.7168 6.19014C9.41735 6.08619 9.11381 5.99378 8.81539 5.88691C8.67304 5.83593 8.60476 5.83094 8.60799 6.02168C8.85165 7.3334 7.73422 6.06831 6.95819 7.05201C5.98985 8.0252 6.73924 8.84188 5.40839 9.86497C5.32883 9.93801 5.26275 9.94682 5.18409 9.88905C4.60595 9.47864 3.30698 9.25565 2.87511 9.92651C2.86891 9.94672 2.8674 9.96808 2.87068 9.98896C2.87397 10.0098 2.88196 10.0297 2.89406 10.047C3.12537 10.4178 3.14351 11.0415 3.58267 10.4196C3.71339 10.3082 3.86694 10.3457 4.0008 10.368C4.14163 10.3914 4.07169 10.5405 4.06819 10.6272C4.08809 10.9731 4.58564 11.0348 4.48776 11.4242C4.43192 11.7059 4.78676 11.5502 4.94268 11.5974C5.19474 11.6338 5.38597 11.5495 5.54755 11.3526C5.6701 11.2033 6.37353 11.1019 6.53552 11.1979C6.66395 11.3274 6.7179 11.5296 6.81004 11.6876C6.96318 11.9949 6.96978 12.0011 7.1952 11.7582C7.71315 11.3516 8.4412 11.6733 8.93403 11.9556C9.32121 12.1725 9.19332 12.9468 9.77007 12.8355C9.88085 12.8094 9.94078 12.9038 10.0015 12.9722C10.4205 13.4847 11.0969 13.4234 11.3447 14.1262C11.5043 14.4193 11.4873 14.6762 11.3516 14.9662C11.2552 15.5109 10.9873 15.9123 10.4217 16.0649C9.97321 16.226 10.7299 16.9577 9.70328 17.2495C9.43999 17.3069 9.40589 17.5085 9.43999 17.745C9.54888 18.354 9.401 18.8137 8.73112 18.9741C8.53302 19.0396 8.56832 19.303 8.4743 19.4531C8.01215 20.2954 8.43226 20.9099 9.02082 21.4998C8.50422 21.5303 7.94436 21.5828 7.7658 21.0267C7.54271 20.3788 7.34083 19.7252 7.01003 19.1195C6.89894 18.9161 6.97045 18.6798 6.96758 18.4592C6.88694 17.5565 5.96524 16.881 6.13837 15.9192C6.20548 15.4375 5.51844 16.1254 4.80711 15.2488C4.57001 14.9675 4.01832 14.2878 4.1136 13.9354C4.30834 13.45 4.32887 12.8644 4.77845 12.5275C4.96995 12.3787 4.98738 11.9144 4.6302 12.0045C3.71272 12.158 3.90876 11.4685 3.3714 11.5994C3.00754 11.6382 2.74488 11.5189 2.46209 11.2643C1.6137 10.484 1.37049 11.0622 0.884393 10.4837C1.21061 8.18581 2.27554 6.05645 3.91842 4.41707Z" fill="#8B8D8E"/>
</g>
<defs>
<clipPath id="clip0_156_1738">
<rect width="23" height="23" fill="white" transform="translate(0 0.5)"/>
</clipPath>
</defs>
</svg>
