<svg width="23" height="28" viewBox="0 0 23 28" fill="none" xmlns="http://www.w3.org/2000/svg">
<g clip-path="url(#clip0_153_1693)">
<path d="M11.3586 13.5058C13.1626 13.5058 14.7247 12.8649 16.001 11.6005C17.2773 10.3364 17.9243 8.78956 17.9243 7.00256C17.9243 5.21619 17.2773 3.66917 16.0008 2.40458C14.7242 1.1406 13.1624 0.499756 11.3586 0.499756C9.55448 0.499756 7.99282 1.1406 6.7165 2.40479C5.44018 3.66897 4.79297 5.21598 4.79297 7.00256C4.79297 8.78956 5.44018 10.3366 6.71671 11.6008C7.99324 12.8647 9.5551 13.5058 11.3586 13.5058Z" fill="#8B8D8E"/>
<path d="M22.8475 21.2613C22.8107 20.7352 22.7362 20.1613 22.6266 19.5553C22.516 18.9447 22.3735 18.3675 22.203 17.84C22.0268 17.2947 21.7872 16.7563 21.4911 16.2403C21.1837 15.7047 20.8227 15.2383 20.4176 14.8545C19.9939 14.4531 19.4752 14.1303 18.8754 13.8948C18.2777 13.6606 17.6154 13.542 16.9068 13.542C16.6285 13.542 16.3594 13.655 15.8397 13.9902C15.5198 14.1968 15.1457 14.4358 14.7281 14.7C14.371 14.9254 13.8873 15.1365 13.2898 15.3277C12.7068 15.5145 12.1149 15.6093 11.5308 15.6093C10.9466 15.6093 10.3549 15.5145 9.77132 15.3277C9.17444 15.1368 8.6907 14.9256 8.33403 14.7003C7.92038 14.4384 7.54603 14.1995 7.22139 13.99C6.70229 13.6548 6.43297 13.5417 6.15471 13.5417C5.44594 13.5417 4.78376 13.6606 4.18626 13.895C3.58689 14.1301 3.068 14.4529 2.64395 14.8547C2.23903 15.2387 1.87779 15.7049 1.57082 16.2403C1.27488 16.7563 1.0353 17.2945 0.858938 17.8402C0.68861 18.3677 0.54615 18.9447 0.43551 19.5553C0.325909 20.1605 0.251455 20.7346 0.214645 21.2619C0.178458 21.7786 0.160156 22.3148 0.160156 22.8563C0.160156 24.2657 0.612493 25.4067 1.50448 26.2482C2.38544 27.0786 3.55112 27.4998 4.96865 27.4998H18.0941C19.5116 27.4998 20.6769 27.0788 21.5581 26.2482C22.4503 25.4073 22.9026 24.2661 22.9026 22.8561C22.9024 22.3121 22.8839 21.7755 22.8475 21.2613Z" fill="#8B8D8E"/>
</g>
<defs>
<clipPath id="clip0_153_1693">
<rect width="23" height="27" fill="white" transform="translate(0 0.5)"/>
</clipPath>
</defs>
</svg>
