<svg width="25" height="26" viewBox="0 0 25 26" fill="none" xmlns="http://www.w3.org/2000/svg">
<g clip-path="url(#clip0_49_576)">
<path d="M12.4762 7.62939e-05C7.7014 7.62939e-05 3.81689 4.03457 3.81689 8.99314C3.81689 13.7662 11.6736 24.9177 12.0082 25.3899L12.3204 25.8312C12.3383 25.8566 12.3617 25.8773 12.3888 25.8916C12.4159 25.9059 12.4458 25.9133 12.4762 25.9134C12.5067 25.9134 12.5368 25.906 12.564 25.8917C12.5913 25.8774 12.6149 25.8567 12.633 25.8312L12.945 25.3899C13.2797 24.9177 21.1362 13.7662 21.1362 8.99314C21.1362 4.03457 17.2511 7.62939e-05 12.4762 7.62939e-05ZM12.4762 5.77184C14.187 5.77184 15.5782 7.21658 15.5782 8.99314C15.5782 10.7688 14.1869 12.2144 12.4762 12.2144C10.7664 12.2144 9.3742 10.7688 9.3742 8.99314C9.3742 7.21658 10.7663 5.77184 12.4762 5.77184Z" fill="white"/>
</g>
<defs>
<clipPath id="clip0_49_576">
<rect width="24.9535" height="25.9133" fill="white"/>
</clipPath>
</defs>
</svg>
