<svg width="38" height="39" viewBox="0 0 38 39" fill="none" xmlns="http://www.w3.org/2000/svg">
<g clip-path="url(#clip0_144_1585)">
<path d="M18.6334 0.00012207C11.5025 0.00012207 5.70117 6.02547 5.70117 13.4309C5.70117 20.5592 17.4349 37.2135 17.9345 37.9188L18.4007 38.5777C18.4275 38.6157 18.4625 38.6467 18.503 38.668C18.5434 38.6893 18.5881 38.7004 18.6334 38.7005C18.679 38.7006 18.724 38.6895 18.7646 38.6682C18.8053 38.6468 18.8406 38.6159 18.8676 38.5777L19.3336 37.9188C19.8335 37.2135 31.5669 20.5592 31.5669 13.4309C31.5669 6.02547 25.7646 0.00012207 18.6334 0.00012207ZM18.6334 8.62C21.1885 8.62 23.2661 10.7777 23.2661 13.4309C23.2661 16.0827 21.1884 18.2417 18.6334 18.2417C16.0799 18.2417 14.0008 16.0827 14.0008 13.4309C14.0008 10.7777 16.0798 8.62 18.6334 8.62Z" fill="#7497B5"/>
</g>
<defs>
<clipPath id="clip0_144_1585">
<rect width="37.267" height="38.7004" fill="white"/>
</clipPath>
</defs>
</svg>
