<svg width="92" height="84" viewBox="0 0 92 84" fill="none" xmlns="http://www.w3.org/2000/svg">
<path fill-rule="evenodd" clip-rule="evenodd" d="M76.3027 15.4225L47.1767 46.1956C46.8616 46.5065 46.5465 46.6397 46.1863 46.6397C46.1563 46.6397 46.1263 46.6397 46.0963 46.6397C45.6911 46.6397 45.331 46.4621 45.1059 46.1956L15.6647 15.4225C15.2596 14.9784 15.1695 14.3123 15.4847 13.7794L23.0926 0.679758C23.3627 0.280106 23.8128 0.0136719 24.308 0.0136719H28.3145C28.3745 0.0136719 28.4196 0.0136719 28.4496 0.0136719C28.5096 0.0136719 28.5546 0.0136719 28.5846 0.0136719C28.9448 0.0136719 29.3049 0.1469 29.575 0.413334L58.8811 29.7211L73.5117 14.3123L66.0388 2.81123H46.0062C45.2409 2.81123 44.5657 2.18957 44.5657 1.39027C44.5657 0.635368 45.2409 0.0136719 46.0062 0.0136719H66.8492C67.2993 0.0136719 67.7495 0.235711 68.0196 0.635363L76.4828 13.7351C76.843 14.2679 76.7529 14.934 76.3027 15.4225ZM25.1633 2.81123L18.4558 14.2679L46.0963 43.2204L56.9454 31.7638L27.9544 2.81123H25.1633Z" fill="#387496"/>
<path d="M8.14711 72.4124H9.63972C9.56198 73.1276 9.35726 73.7676 9.02557 74.3325C8.69388 74.8975 8.22485 75.3457 7.61848 75.6774C7.01212 76.0039 6.25545 76.1672 5.34849 76.1672C4.68511 76.1672 4.08133 76.0428 3.53715 75.794C2.99816 75.5453 2.53431 75.1929 2.14561 74.7368C1.75692 74.2755 1.45632 73.7236 1.24383 73.0809C1.03653 72.4331 0.932876 71.7127 0.932876 70.9198V69.7925C0.932876 68.9996 1.03653 68.2818 1.24383 67.6392C1.45632 66.9913 1.75951 66.4368 2.15339 65.9755C2.55245 65.5143 3.03185 65.1593 3.59157 64.9105C4.1513 64.6617 4.78099 64.5373 5.48064 64.5373C6.33578 64.5373 7.05876 64.698 7.64958 65.0193C8.2404 65.3407 8.69907 65.7864 9.02557 66.3565C9.35726 66.9214 9.56198 67.577 9.63972 68.3233H8.14711C8.07456 67.7946 7.93981 67.3412 7.74287 66.9628C7.54593 66.5793 7.26607 66.2839 6.90328 66.0766C6.5405 65.8693 6.06628 65.7656 5.48064 65.7656C4.97793 65.7656 4.53481 65.8615 4.1513 66.0533C3.77296 66.245 3.45423 66.5171 3.1951 66.8695C2.94115 67.222 2.74939 67.6443 2.61983 68.1367C2.49026 68.629 2.42548 69.1758 2.42548 69.777V70.9198C2.42548 71.4743 2.48249 71.9952 2.5965 72.4823C2.7157 72.9695 2.89451 73.3971 3.13291 73.765C3.37131 74.133 3.67449 74.4232 4.04246 74.6357C4.41043 74.843 4.84577 74.9467 5.34849 74.9467C5.98595 74.9467 6.49385 74.8456 6.87218 74.6435C7.25052 74.4414 7.53556 74.1511 7.72732 73.7728C7.92426 73.3945 8.06419 72.941 8.14711 72.4124ZM20.3989 69.9947V70.7099C20.3989 71.5598 20.2926 72.3217 20.0801 72.9954C19.8677 73.6692 19.5619 74.2418 19.1628 74.7135C18.7638 75.1851 18.2844 75.5453 17.7246 75.794C17.1701 76.0428 16.5482 76.1672 15.8589 76.1672C15.1903 76.1672 14.5762 76.0428 14.0165 75.794C13.4619 75.5453 12.9799 75.1851 12.5705 74.7135C12.1663 74.2418 11.8527 73.6692 11.6299 72.9954C11.407 72.3217 11.2956 71.5598 11.2956 70.7099V69.9947C11.2956 69.1447 11.4044 68.3855 11.6221 67.7169C11.8449 67.0432 12.1585 66.4705 12.5627 65.9989C12.967 65.522 13.4464 65.1593 14.0009 64.9105C14.5606 64.6617 15.1748 64.5373 15.8433 64.5373C16.5326 64.5373 17.1545 64.6617 17.7091 64.9105C18.2688 65.1593 18.7482 65.522 19.1473 65.9989C19.5515 66.4705 19.8599 67.0432 20.0724 67.7169C20.29 68.3855 20.3989 69.1447 20.3989 69.9947ZM18.9141 70.7099V69.9791C18.9141 69.3054 18.8441 68.7094 18.7042 68.1911C18.5694 67.6728 18.3699 67.2375 18.1056 66.8851C17.8412 66.5327 17.5173 66.2658 17.1338 66.0844C16.7555 65.903 16.3253 65.8123 15.8433 65.8123C15.3769 65.8123 14.9545 65.903 14.5762 66.0844C14.203 66.2658 13.8817 66.5327 13.6122 66.8851C13.3479 67.2375 13.1432 67.6728 12.9981 68.1911C12.853 68.7094 12.7804 69.3054 12.7804 69.9791V70.7099C12.7804 71.3888 12.853 71.99 12.9981 72.5134C13.1432 73.0317 13.3505 73.4696 13.62 73.8272C13.8947 74.1797 14.2186 74.4466 14.5917 74.628C14.9701 74.8093 15.3924 74.9 15.8589 74.9C16.3461 74.9 16.7788 74.8093 17.1571 74.628C17.5355 74.4466 17.8542 74.1797 18.1133 73.8272C18.3777 73.4696 18.5772 73.0317 18.7119 72.5134C18.8467 71.99 18.9141 71.3888 18.9141 70.7099ZM31.3524 64.6928V76.0117H29.8442L24.1459 67.2816V76.0117H22.6456V64.6928H24.1459L29.8676 73.4463V64.6928H31.3524ZM40.0437 73.1509C40.0437 72.8866 40.0022 72.6534 39.9193 72.4512C39.8416 72.2439 39.7016 72.0574 39.4995 71.8915C39.3026 71.7257 39.0279 71.5676 38.6755 71.4173C38.3282 71.267 37.8877 71.1141 37.3539 70.9586C36.7942 70.7928 36.2889 70.6088 35.838 70.4067C35.3871 70.1994 35.001 69.9636 34.6797 69.6993C34.3583 69.4349 34.1122 69.1318 33.9411 68.7897C33.7701 68.4477 33.6846 68.0564 33.6846 67.6158C33.6846 67.1753 33.7753 66.7685 33.9567 66.3953C34.1381 66.0222 34.3972 65.6983 34.7341 65.4236C35.0761 65.1437 35.483 64.926 35.9546 64.7706C36.4262 64.6151 36.9522 64.5373 37.5327 64.5373C38.3827 64.5373 39.103 64.7006 39.6939 65.0271C40.2899 65.3484 40.7433 65.7708 41.0543 66.2943C41.3653 66.8125 41.5207 67.3671 41.5207 67.9579H40.0281C40.0281 67.5329 39.9374 67.1572 39.7561 66.8307C39.5747 66.499 39.3 66.2398 38.932 66.0533C38.564 65.8615 38.0976 65.7656 37.5327 65.7656C36.9989 65.7656 36.5584 65.846 36.2111 66.0066C35.8639 66.1673 35.6048 66.385 35.4337 66.6596C35.2679 66.9343 35.185 67.2479 35.185 67.6003C35.185 67.8387 35.2342 68.0564 35.3327 68.2533C35.4363 68.4451 35.5944 68.6239 35.8069 68.7897C36.0245 68.9556 36.2992 69.1084 36.6309 69.2484C36.9678 69.3883 37.3694 69.523 37.8359 69.6526C38.4785 69.834 39.0331 70.0361 39.4995 70.259C39.9659 70.4818 40.3495 70.7332 40.6501 71.0131C40.9558 71.2877 41.1813 71.6013 41.3264 71.9537C41.4767 72.3009 41.5518 72.6948 41.5518 73.1354C41.5518 73.5966 41.4585 74.0138 41.272 74.387C41.0854 74.7601 40.8185 75.0788 40.4713 75.3432C40.124 75.6075 39.7068 75.8122 39.2196 75.9573C38.7377 76.0972 38.1987 76.1672 37.6027 76.1672C37.0792 76.1672 36.5635 76.0946 36.0556 75.9495C35.5529 75.8044 35.0943 75.5867 34.6797 75.2965C34.2702 75.0063 33.9411 74.6487 33.6924 74.2237C33.4488 73.7935 33.327 73.296 33.327 72.7311H34.8196C34.8196 73.1198 34.8947 73.4541 35.045 73.7339C35.1953 74.0086 35.4 74.2367 35.6592 74.4181C35.9235 74.5994 36.2215 74.7342 36.5532 74.8223C36.8901 74.9052 37.2399 74.9467 37.6027 74.9467C38.1261 74.9467 38.5692 74.8741 38.932 74.729C39.2948 74.5839 39.5695 74.3766 39.7561 74.1071C39.9478 73.8376 40.0437 73.5189 40.0437 73.1509ZM47.6466 64.6928V76.0117H46.1696V64.6928H47.6466ZM51.2848 64.6928V65.9211H42.5391V64.6928H51.2848ZM52.964 64.6928H56.7111C57.561 64.6928 58.2788 64.8224 58.8645 65.0815C59.4553 65.3407 59.9036 65.7242 60.2094 66.2321C60.5203 66.7348 60.6758 67.3541 60.6758 68.09C60.6758 68.6083 60.5695 69.0825 60.3571 69.5127C60.1498 69.9377 59.8492 70.3004 59.4553 70.601C59.0666 70.8965 58.6001 71.1167 58.056 71.2618L57.6362 71.4251H54.1146L54.099 70.2046H56.7577C57.2967 70.2046 57.745 70.1113 58.1026 69.9247C58.4602 69.7329 58.7297 69.4764 58.9111 69.1551C59.0925 68.8338 59.1832 68.4787 59.1832 68.09C59.1832 67.6547 59.0977 67.2738 58.9266 66.9473C58.7556 66.6208 58.4861 66.3694 58.1182 66.1932C57.7554 66.0118 57.2863 65.9211 56.7111 65.9211H54.4644V76.0117H52.964V64.6928ZM59.5797 76.0117L56.8277 70.8809L58.3902 70.8731L61.1811 75.9184V76.0117H59.5797ZM69.2505 64.6928H70.7431V72.3502C70.7431 73.2001 70.5539 73.9076 70.1756 74.4725C69.7972 75.0374 69.2945 75.4624 68.6674 75.7474C68.0455 76.0273 67.3692 76.1672 66.6384 76.1672C65.8714 76.1672 65.1769 76.0273 64.555 75.7474C63.9383 75.4624 63.4485 75.0374 63.0857 74.4725C62.7281 73.9076 62.5493 73.2001 62.5493 72.3502V64.6928H64.0341V72.3502C64.0341 72.941 64.143 73.4282 64.3606 73.8117C64.5783 74.1952 64.8815 74.4802 65.2702 74.6668C65.6641 74.8534 66.1202 74.9467 66.6384 74.9467C67.1619 74.9467 67.6179 74.8534 68.0066 74.6668C68.4005 74.4802 68.7063 74.1952 68.924 73.8117C69.1416 73.4282 69.2505 72.941 69.2505 72.3502V64.6928ZM79.9319 72.4124H81.4245C81.3468 73.1276 81.142 73.7676 80.8104 74.3325C80.4787 74.8975 80.0096 75.3457 79.4033 75.6774C78.7969 76.0039 78.0402 76.1672 77.1333 76.1672C76.4699 76.1672 75.8661 76.0428 75.3219 75.794C74.7829 75.5453 74.3191 75.1929 73.9304 74.7368C73.5417 74.2755 73.2411 73.7236 73.0286 73.0809C72.8213 72.4331 72.7177 71.7127 72.7177 70.9198V69.7925C72.7177 68.9996 72.8213 68.2818 73.0286 67.6392C73.2411 66.9913 73.5443 66.4368 73.9382 65.9755C74.3372 65.5143 74.8166 65.1593 75.3764 64.9105C75.9361 64.6617 76.5658 64.5373 77.2654 64.5373C78.1206 64.5373 78.8435 64.698 79.4344 65.0193C80.0252 65.3407 80.4838 65.7864 80.8104 66.3565C81.142 66.9214 81.3468 67.577 81.4245 68.3233H79.9319C79.8593 67.7946 79.7246 67.3412 79.5277 66.9628C79.3307 66.5793 79.0508 66.2839 78.6881 66.0766C78.3253 65.8693 77.8511 65.7656 77.2654 65.7656C76.7627 65.7656 76.3196 65.8615 75.9361 66.0533C75.5577 66.245 75.239 66.5171 74.9799 66.8695C74.7259 67.222 74.5342 67.6443 74.4046 68.1367C74.275 68.629 74.2103 69.1758 74.2103 69.777V70.9198C74.2103 71.4743 74.2673 71.9952 74.3813 72.4823C74.5005 72.9695 74.6793 73.3971 74.9177 73.765C75.1561 74.133 75.4593 74.4232 75.8272 74.6357C76.1952 74.843 76.6306 74.9467 77.1333 74.9467C77.7707 74.9467 78.2786 74.8456 78.657 74.6435C79.0353 74.4414 79.3203 74.1511 79.5121 73.7728C79.709 73.3945 79.849 72.941 79.9319 72.4124ZM87.4182 64.6928V76.0117H85.9412V64.6928H87.4182ZM91.0564 64.6928V65.9211H82.3107V64.6928H91.0564Z" fill="#387496"/>
</svg>
