<svg width="100" height="97" viewBox="0 0 100 97" fill="none" xmlns="http://www.w3.org/2000/svg">
<path d="M75.394 17.3833V39.588" stroke="#636262" stroke-width="1.88976" stroke-linecap="round" stroke-linejoin="round"/>
<path d="M24.6064 17.3833L38.4489 0.942383H61.5749L75.3938 17.3833L49.7403 9.23372L24.6064 17.3833Z" stroke="#636262" stroke-width="1.88976" stroke-linecap="round" stroke-linejoin="round"/>
<path d="M75.3938 39.5884L61.5749 52.8876H38.4489L24.6064 39.5884L49.7403 30.5176L75.3938 39.5884Z" stroke="#636262" stroke-width="1.88976" stroke-linecap="round" stroke-linejoin="round"/>
<path d="M24.6064 26.3119L49.7403 17.6426L75.3938 26.3119" stroke="#636262" stroke-width="0.94488" stroke-linecap="round" stroke-linejoin="round"/>
<path d="M25.4336 31.1784L49.9769 22.7217L74.9926 31.1784" stroke="#636262" stroke-width="0.94488" stroke-linecap="round" stroke-linejoin="round"/>
<path d="M49.7397 17.6428V9.2334" stroke="#636262" stroke-width="0.94488" stroke-linecap="round" stroke-linejoin="round"/>
<path d="M49.9766 22.7217V30.5169" stroke="#636262" stroke-width="0.94488" stroke-linecap="round" stroke-linejoin="round"/>
<path d="M24.6064 17.3833V39.588" stroke="#636262" stroke-width="1.88976" stroke-linecap="round" stroke-linejoin="round"/>
<path d="M38.2832 34.9585V52.8876" stroke="#636262" stroke-width="0.94488" stroke-linecap="round" stroke-linejoin="round"/>
<path d="M38.2832 43.6037H59.3068V34.2021" stroke="#636262" stroke-width="0.94488" stroke-linecap="round" stroke-linejoin="round"/>
<path d="M59.3071 39.8247H64.8583V49.7223" stroke="#636262" stroke-width="0.94488" stroke-linecap="round" stroke-linejoin="round"/>
<path d="M38.4492 0.942383V13.0605" stroke="#636262" stroke-width="0.94488" stroke-linecap="round" stroke-linejoin="round"/>
<path d="M38.4492 7.01416H49.7405V8.47873" stroke="#636262" stroke-width="0.94488" stroke-linecap="round" stroke-linejoin="round"/>
<path d="M61.5752 0.942383V12.9896" stroke="#636262" stroke-width="0.94488" stroke-linecap="round" stroke-linejoin="round"/>
<path d="M7.10376 89.1785C6.26525 89.1785 5.49043 89.0406 4.77929 88.7646C4.06815 88.478 3.45253 88.08 2.93244 87.5705C2.41235 87.061 2.00371 86.4613 1.70652 85.7714C1.41994 85.0815 1.27665 84.3279 1.27665 83.5106C1.27665 82.6933 1.41994 81.9398 1.70652 81.2498C2.00371 80.5599 2.41235 79.9602 2.93244 79.4508C3.46314 78.9413 4.08407 78.5486 4.79521 78.2726C5.50635 77.986 6.28118 77.8427 7.11969 77.8427C7.92635 77.8427 8.68526 77.9807 9.3964 78.2567C10.1075 78.522 10.7072 78.9254 11.1955 79.4667L10.4472 80.215C9.99079 79.7479 9.48662 79.4136 8.93469 79.2119C8.38276 78.9997 7.78837 78.8935 7.15153 78.8935C6.48284 78.8935 5.86192 79.0103 5.28876 79.2438C4.7156 79.4667 4.21674 79.7904 3.79218 80.215C3.36762 80.6289 3.03328 81.1172 2.78915 81.6797C2.55564 82.2316 2.43889 82.8419 2.43889 83.5106C2.43889 84.1793 2.55564 84.7949 2.78915 85.3575C3.03328 85.9094 3.36762 86.3977 3.79218 86.8222C4.21674 87.2362 4.7156 87.5599 5.28876 87.7934C5.86192 88.0163 6.48284 88.1277 7.15153 88.1277C7.78837 88.1277 8.38276 88.0216 8.93469 87.8093C9.48662 87.597 9.99079 87.2574 10.4472 86.7904L11.1955 87.5387C10.7072 88.08 10.1075 88.4886 9.3964 88.7646C8.68526 89.0406 7.92105 89.1785 7.10376 89.1785ZM13.707 89.083V77.9383H14.8852V89.083H13.707ZM20.6766 89.083V78.9572H16.76V77.9383H25.7714V78.9572H21.8548V89.083H20.6766ZM30.2346 89.083V84.9435L30.5053 85.6759L25.7767 77.9383H27.0345L31.1899 84.7366H30.5212L34.6766 77.9383H35.8547L31.1262 85.6759L31.3968 84.9435V89.083H30.2346ZM42.8996 82.9215H48.7904V83.9246H42.8996V82.9215ZM43.0269 88.0641H49.7297V89.083H41.8488V77.9383H49.4909V78.9572H43.0269V88.0641ZM55.5719 89.1785C54.744 89.1785 53.9479 89.0459 53.1837 88.7805C52.4301 88.5045 51.8463 88.1543 51.4324 87.7297L51.8941 86.8222C52.2868 87.2043 52.8122 87.528 53.4703 87.7934C54.139 88.0481 54.8395 88.1755 55.5719 88.1755C56.2724 88.1755 56.8403 88.0906 57.2754 87.9208C57.7212 87.7403 58.045 87.5015 58.2466 87.2043C58.4589 86.9071 58.565 86.5781 58.565 86.2172C58.565 85.782 58.4377 85.4318 58.1829 85.1664C57.9388 84.9011 57.6151 84.6941 57.2118 84.5455C56.8084 84.3863 56.3626 84.2483 55.8744 84.1316C55.3861 84.0148 54.8979 83.8927 54.4096 83.7654C53.9214 83.6274 53.4703 83.4469 53.0563 83.2241C52.653 83.0012 52.324 82.7093 52.0692 82.3484C51.8251 81.9769 51.7031 81.494 51.7031 80.8996C51.7031 80.3476 51.8463 79.8435 52.1329 79.3871C52.4301 78.9201 52.8812 78.5486 53.4862 78.2726C54.0912 77.986 54.866 77.8427 55.8107 77.8427C56.4369 77.8427 57.0578 77.9329 57.6735 78.1134C58.2891 78.2832 58.8198 78.522 59.2656 78.8298L58.8675 79.7692C58.3899 79.4508 57.8804 79.2172 57.3391 79.0686C56.8084 78.9201 56.2936 78.8458 55.7948 78.8458C55.1261 78.8458 54.5742 78.936 54.139 79.1164C53.7038 79.2969 53.3801 79.541 53.1678 79.8488C52.9661 80.146 52.8653 80.4856 52.8653 80.8677C52.8653 81.3029 52.9874 81.6532 53.2315 81.9185C53.4862 82.1839 53.8153 82.3908 54.2186 82.5394C54.6325 82.688 55.0836 82.8207 55.5719 82.9375C56.0601 83.0542 56.5431 83.1816 57.0207 83.3196C57.5089 83.4576 57.9547 83.638 58.3581 83.8609C58.772 84.0732 59.1011 84.3598 59.3452 84.7206C59.5999 85.0815 59.7273 85.5538 59.7273 86.1376C59.7273 86.6789 59.5787 87.1831 59.2815 87.6501C58.9843 88.1065 58.5279 88.478 57.9123 88.7646C57.3073 89.0406 56.5271 89.1785 55.5719 89.1785ZM64.3041 89.083V78.9572H60.3875V77.9383H69.3988V78.9572H65.4823V89.083H64.3041ZM68.9381 89.083L74.0329 77.9383H75.1951L80.2899 89.083H79.048L74.3672 78.6229H74.8448L70.164 89.083H68.9381ZM70.9442 86.1058L71.2944 85.1505H77.7743L78.1246 86.1058H70.9442ZM83.739 89.083V78.9572H79.8224V77.9383H88.8338V78.9572H84.9172V89.083H83.739ZM91.7667 82.9215H97.6575V83.9246H91.7667V82.9215ZM91.8941 88.0641H98.5969V89.083H90.7159V77.9383H98.358V78.9572H91.8941V88.0641Z" fill="#636262"/>
</svg>
