<svg width="96" height="85" viewBox="0 0 96 85" fill="none" xmlns="http://www.w3.org/2000/svg">
<path fill-rule="evenodd" clip-rule="evenodd" d="M31.3891 48.4838L45.8356 25.3966L33.9968 6.41727L8.18088 47.7038H4.32153L33.9968 0.229492L47.7653 22.2767L61.5338 0.229492L91.6785 48.4838H31.3891ZM49.6428 25.3966L62.0553 45.2079H85.7329L61.4816 6.41727L49.6428 25.3966ZM47.7131 28.4645L37.2825 45.2079H58.196L47.7131 28.4645Z" fill="#636262"/>
<path d="M1.64812 78.7954V68.6754H2.71795V78.7954H1.64812ZM6.01069 78.7954V68.6754H6.89258L13.8754 77.4653H13.4128V68.6754H14.4681V78.7954H13.5863L6.61789 70.0054H7.08052V78.7954H6.01069ZM17.7713 78.7954V68.6754H18.6532L25.636 77.4653H25.1734V68.6754H26.2287V78.7954H25.3468L18.3785 70.0054H18.8411V78.7954H17.7713ZM33.9558 78.8822C33.1944 78.8822 32.4859 78.7569 31.8306 78.5063C31.1848 78.246 30.621 77.8846 30.1391 77.422C29.6668 76.9497 29.2957 76.4052 29.0259 75.7883C28.7656 75.1618 28.6355 74.4775 28.6355 73.7354C28.6355 72.9933 28.7656 72.3138 29.0259 71.6969C29.2957 71.0704 29.6668 70.5259 30.1391 70.0633C30.621 69.591 31.1848 69.2296 31.8306 68.979C32.4763 68.7187 33.1847 68.5886 33.9558 68.5886C34.7172 68.5886 35.4208 68.7187 36.0665 68.979C36.7123 69.2296 37.2713 69.5862 37.7435 70.0488C38.2255 70.5114 38.5965 71.056 38.8568 71.6825C39.1266 72.3089 39.2616 72.9933 39.2616 73.7354C39.2616 74.4775 39.1266 75.1618 38.8568 75.7883C38.5965 76.4148 38.2255 76.9593 37.7435 77.422C37.2713 77.8846 36.7123 78.246 36.0665 78.5063C35.4208 78.7569 34.7172 78.8822 33.9558 78.8822ZM33.9558 77.928C34.563 77.928 35.122 77.8268 35.6328 77.6244C36.1533 77.4123 36.6014 77.1184 36.9773 76.7425C37.3628 76.357 37.6616 75.9136 37.8737 75.4124C38.0857 74.9016 38.1917 74.3426 38.1917 73.7354C38.1917 73.1282 38.0857 72.574 37.8737 72.0728C37.6616 71.562 37.3628 71.1186 36.9773 70.7428C36.6014 70.3572 36.1533 70.0633 35.6328 69.8609C35.122 69.6488 34.563 69.5428 33.9558 69.5428C33.3486 69.5428 32.7847 69.6488 32.2643 69.8609C31.7438 70.0633 31.2908 70.3572 30.9053 70.7428C30.5294 71.1186 30.2306 71.562 30.009 72.0728C29.7969 72.574 29.6909 73.1282 29.6909 73.7354C29.6909 74.333 29.7969 74.8871 30.009 75.398C30.2306 75.9088 30.5294 76.357 30.9053 76.7425C31.2908 77.1184 31.7438 77.4123 32.2643 77.6244C32.7847 77.8268 33.3486 77.928 33.9558 77.928ZM44.24 78.7954L39.7583 68.6754H40.9149L45.1075 78.2027H44.4713L48.6928 68.6754H49.7771L45.2954 78.7954H44.24ZM49.3161 78.7954L53.9424 68.6754H54.9978L59.6241 78.7954H58.4964L54.246 69.297H54.6797L50.4293 78.7954H49.3161ZM51.1377 76.0919L51.4557 75.2245H57.3398L57.6579 76.0919H51.1377ZM62.7561 78.7954V69.6006H59.1996V68.6754H67.3824V69.6006H63.8259V78.7954H62.7561ZM69.0915 78.7954V68.6754H70.1613V78.7954H69.0915ZM77.878 78.8822C77.1165 78.8822 76.4081 78.7569 75.7528 78.5063C75.107 78.246 74.5432 77.8846 74.0613 77.422C73.589 76.9497 73.2179 76.4052 72.9481 75.7883C72.6878 75.1618 72.5577 74.4775 72.5577 73.7354C72.5577 72.9933 72.6878 72.3138 72.9481 71.6969C73.2179 71.0704 73.589 70.5259 74.0613 70.0633C74.5432 69.591 75.107 69.2296 75.7528 68.979C76.3985 68.7187 77.1069 68.5886 77.878 68.5886C78.6394 68.5886 79.343 68.7187 79.9887 68.979C80.6345 69.2296 81.1935 69.5862 81.6657 70.0488C82.1477 70.5114 82.5187 71.056 82.7789 71.6825C83.0488 72.3089 83.1838 72.9933 83.1838 73.7354C83.1838 74.4775 83.0488 75.1618 82.7789 75.7883C82.5187 76.4148 82.1477 76.9593 81.6657 77.422C81.1935 77.8846 80.6345 78.246 79.9887 78.5063C79.343 78.7569 78.6394 78.8822 77.878 78.8822ZM77.878 77.928C78.4852 77.928 79.0442 77.8268 79.555 77.6244C80.0755 77.4123 80.5236 77.1184 80.8995 76.7425C81.285 76.357 81.5838 75.9136 81.7959 75.4124C82.0079 74.9016 82.1139 74.3426 82.1139 73.7354C82.1139 73.1282 82.0079 72.574 81.7959 72.0728C81.5838 71.562 81.285 71.1186 80.8995 70.7428C80.5236 70.3572 80.0755 70.0633 79.555 69.8609C79.0442 69.6488 78.4852 69.5428 77.878 69.5428C77.2708 69.5428 76.7069 69.6488 76.1865 69.8609C75.666 70.0633 75.213 70.3572 74.8275 70.7428C74.4516 71.1186 74.1528 71.562 73.9311 72.0728C73.7191 72.574 73.6131 73.1282 73.6131 73.7354C73.6131 74.333 73.7191 74.8871 73.9311 75.398C74.1528 75.9088 74.4516 76.357 74.8275 76.7425C75.213 77.1184 75.666 77.4123 76.1865 77.6244C76.7069 77.8268 77.2708 77.928 77.878 77.928ZM85.5817 78.7954V68.6754H86.4636L93.4464 77.4653H92.9838V68.6754H94.0392V78.7954H93.1573L86.1889 70.0054H86.6516V78.7954H85.5817Z" fill="#636262"/>
</svg>
