<svg width="100" height="97" viewBox="0 0 100 97" fill="none" xmlns="http://www.w3.org/2000/svg">
<path d="M75.3938 17.3833V39.588" stroke="#3B3D42" stroke-width="1.88976" stroke-linecap="round" stroke-linejoin="round"/>
<path d="M24.6067 17.3833L38.4492 0.942383H61.5751L75.394 17.3833L49.7405 9.23372L24.6067 17.3833Z" stroke="#3B3D42" stroke-width="1.88976" stroke-linecap="round" stroke-linejoin="round"/>
<path d="M75.3942 39.5884L61.5754 52.8876H38.4494L24.6069 39.5884L49.7407 30.5176L75.3942 39.5884Z" stroke="#3B3D42" stroke-width="1.88976" stroke-linecap="round" stroke-linejoin="round"/>
<path d="M24.6069 26.3119L49.7407 17.6426L75.3942 26.3119" stroke="#3B3D42" stroke-width="0.94488" stroke-linecap="round" stroke-linejoin="round"/>
<path d="M25.4336 31.1784L49.9769 22.7217L74.9926 31.1784" stroke="#3B3D42" stroke-width="0.94488" stroke-linecap="round" stroke-linejoin="round"/>
<path d="M49.74 17.6428V9.2334" stroke="#3B3D42" stroke-width="0.94488" stroke-linecap="round" stroke-linejoin="round"/>
<path d="M49.9766 22.7217V30.5169" stroke="#3B3D42" stroke-width="0.94488" stroke-linecap="round" stroke-linejoin="round"/>
<path d="M24.6069 17.3833V39.588" stroke="#3B3D42" stroke-width="1.88976" stroke-linecap="round" stroke-linejoin="round"/>
<path d="M38.2832 34.9585V52.8876" stroke="#3B3D42" stroke-width="0.94488" stroke-linecap="round" stroke-linejoin="round"/>
<path d="M38.2832 43.6037H59.3068V34.2021" stroke="#3B3D42" stroke-width="0.94488" stroke-linecap="round" stroke-linejoin="round"/>
<path d="M59.3074 39.8247H64.8585V49.7223" stroke="#3B3D42" stroke-width="0.94488" stroke-linecap="round" stroke-linejoin="round"/>
<path d="M38.4492 0.942383V13.0605" stroke="#3B3D42" stroke-width="0.94488" stroke-linecap="round" stroke-linejoin="round"/>
<path d="M38.4492 7.01416H49.7405V8.47873" stroke="#3B3D42" stroke-width="0.94488" stroke-linecap="round" stroke-linejoin="round"/>
<path d="M61.5752 0.942383V12.9896" stroke="#3B3D42" stroke-width="0.94488" stroke-linecap="round" stroke-linejoin="round"/>
<path d="M7.10401 89.1785C6.2655 89.1785 5.49067 89.0406 4.77953 88.7646C4.06839 88.478 3.45277 88.08 2.93269 87.5705C2.4126 87.061 2.00396 86.4613 1.70676 85.7714C1.42018 85.0815 1.27689 84.3279 1.27689 83.5106C1.27689 82.6933 1.42018 81.9398 1.70676 81.2498C2.00396 80.5599 2.4126 79.9602 2.93269 79.4508C3.46339 78.9413 4.08431 78.5486 4.79545 78.2726C5.50659 77.986 6.28142 77.8427 7.11993 77.8427C7.9266 77.8427 8.6855 77.9807 9.39664 78.2567C10.1078 78.522 10.7075 78.9254 11.1957 79.4667L10.4474 80.215C9.99103 79.7479 9.48686 79.4136 8.93493 79.2119C8.383 78.9997 7.78862 78.8935 7.15177 78.8935C6.48309 78.8935 5.86216 79.0103 5.28901 79.2438C4.71585 79.4667 4.21699 79.7904 3.79242 80.215C3.36786 80.6289 3.03352 81.1172 2.7894 81.6797C2.55589 82.2316 2.43913 82.8419 2.43913 83.5106C2.43913 84.1793 2.55589 84.7949 2.7894 85.3575C3.03352 85.9094 3.36786 86.3977 3.79242 86.8222C4.21699 87.2362 4.71585 87.5599 5.28901 87.7934C5.86216 88.0163 6.48309 88.1277 7.15177 88.1277C7.78862 88.1277 8.383 88.0216 8.93493 87.8093C9.48686 87.597 9.99103 87.2574 10.4474 86.7904L11.1957 87.5387C10.7075 88.08 10.1078 88.4886 9.39664 88.7646C8.6855 89.0406 7.92129 89.1785 7.10401 89.1785ZM13.7073 89.083V77.9383H14.8854V89.083H13.7073ZM20.6769 89.083V78.9572H16.7603V77.9383H25.7716V78.9572H21.855V89.083H20.6769ZM30.2348 89.083V84.9435L30.5055 85.6759L25.7769 77.9383H27.0347L31.1901 84.7366H30.5214L34.6768 77.9383H35.855L31.1264 85.6759L31.3971 84.9435V89.083H30.2348ZM42.8998 82.9215H48.7906V83.9246H42.8998V82.9215ZM43.0272 88.0641H49.73V89.083H41.849V77.9383H49.4911V78.9572H43.0272V88.0641ZM55.5721 89.1785C54.7442 89.1785 53.9482 89.0459 53.184 88.7805C52.4304 88.5045 51.8466 88.1543 51.4326 87.7297L51.8944 86.8222C52.2871 87.2043 52.8125 87.528 53.4705 87.7934C54.1392 88.0481 54.8398 88.1755 55.5721 88.1755C56.2727 88.1755 56.8405 88.0906 57.2757 87.9208C57.7215 87.7403 58.0452 87.5015 58.2469 87.2043C58.4591 86.9071 58.5653 86.5781 58.5653 86.2172C58.5653 85.782 58.4379 85.4318 58.1832 85.1664C57.9391 84.9011 57.6153 84.6941 57.212 84.5455C56.8087 84.3863 56.3629 84.2483 55.8746 84.1316C55.3864 84.0148 54.8981 83.8927 54.4099 83.7654C53.9216 83.6274 53.4705 83.4469 53.0566 83.2241C52.6533 83.0012 52.3242 82.7093 52.0695 82.3484C51.8254 81.9769 51.7033 81.494 51.7033 80.8996C51.7033 80.3476 51.8466 79.8435 52.1332 79.3871C52.4304 78.9201 52.8815 78.5486 53.4865 78.2726C54.0915 77.986 54.8663 77.8427 55.8109 77.8427C56.4372 77.8427 57.0581 77.9329 57.6737 78.1134C58.2893 78.2832 58.82 78.522 59.2658 78.8298L58.8678 79.7692C58.3902 79.4508 57.8807 79.2172 57.3394 79.0686C56.8087 78.9201 56.2939 78.8458 55.795 78.8458C55.1263 78.8458 54.5744 78.936 54.1392 79.1164C53.7041 79.2969 53.3803 79.541 53.168 79.8488C52.9664 80.146 52.8655 80.4856 52.8655 80.8677C52.8655 81.3029 52.9876 81.6532 53.2317 81.9185C53.4865 82.1839 53.8155 82.3908 54.2188 82.5394C54.6328 82.688 55.0839 82.8207 55.5721 82.9375C56.0604 83.0542 56.5433 83.1816 57.0209 83.3196C57.5092 83.4576 57.955 83.638 58.3583 83.8609C58.7723 84.0732 59.1013 84.3598 59.3454 84.7206C59.6002 85.0815 59.7275 85.5538 59.7275 86.1376C59.7275 86.6789 59.5789 87.1831 59.2817 87.6501C58.9845 88.1065 58.5281 88.478 57.9125 88.7646C57.3075 89.0406 56.5274 89.1785 55.5721 89.1785ZM64.3043 89.083V78.9572H60.3878V77.9383H69.3991V78.9572H65.4825V89.083H64.3043ZM68.9384 89.083L74.0331 77.9383H75.1954L80.2901 89.083H79.0483L74.3675 78.6229H74.8451L70.1643 89.083H68.9384ZM70.9444 86.1058L71.2947 85.1505H77.7746L78.1248 86.1058H70.9444ZM83.7392 89.083V78.9572H79.8227V77.9383H88.834V78.9572H84.9174V89.083H83.7392ZM91.767 82.9215H97.6578V83.9246H91.767V82.9215ZM91.8943 88.0641H98.5971V89.083H90.7162V77.9383H98.3583V78.9572H91.8943V88.0641Z" fill="#3B3D42"/>
</svg>
