<svg width="88" height="112" viewBox="0 0 88 112" fill="none" xmlns="http://www.w3.org/2000/svg">
<path d="M35.4049 51.769L44 60.4303L35.4049 69.0254L9.4873 43.1739L18.1485 34.5127L26.7437 43.1739L35.4049 34.5127L44 43.1739L35.4049 51.769Z" fill="#636262"/>
<path d="M78.5127 43.1739L52.6612 69.0254L44 60.4303L52.6612 51.769L44 43.1739L52.6612 34.5127L61.2564 43.1739L69.9176 34.5127L78.5127 43.1739Z" fill="#636262"/>
<path d="M78.5127 25.9176L69.9176 34.5127L61.2564 25.9176L52.6612 34.5127L44 25.9176L52.6612 17.2563L44 8.66122L52.6612 0L78.5127 25.9176Z" fill="#636262"/>
<path d="M35.4049 17.2563L44 25.9176L35.4049 34.5127L26.7437 25.9176L18.1485 34.5127L9.4873 25.9176L35.4049 0L44 8.66122L35.4049 17.2563Z" fill="#636262"/>
<path d="M2.37231 104.025V92.1882H7.4792C8.7982 92.1882 9.81846 92.4531 10.54 92.983C11.2727 93.5128 11.6391 94.2625 11.6391 95.2321C11.6391 95.8746 11.4869 96.4158 11.1825 96.8554C10.8894 97.2951 10.4836 97.6277 9.96501 97.8531C9.4577 98.0786 8.89967 98.1914 8.2909 98.1914L8.57837 97.7855C9.3337 97.7855 9.98192 97.9039 10.523 98.1406C11.0755 98.3661 11.5038 98.7099 11.8082 99.1721C12.1126 99.6231 12.2648 100.187 12.2648 100.863C12.2648 101.867 11.8928 102.644 11.1487 103.197C10.416 103.749 9.30551 104.025 7.81741 104.025H2.37231ZM3.62367 102.994H7.8005C8.83766 102.994 9.63244 102.819 10.1848 102.47C10.7372 102.109 11.0134 101.54 11.0134 100.762C11.0134 99.9951 10.7372 99.4371 10.1848 99.0876C9.63244 98.7268 8.83766 98.5465 7.8005 98.5465H3.48838V97.5149H7.39465C8.34163 97.5149 9.0744 97.3346 9.59299 96.9738C10.1228 96.6131 10.3878 96.0776 10.3878 95.3673C10.3878 94.6458 10.1228 94.1103 9.59299 93.7609C9.0744 93.4001 8.34163 93.2197 7.39465 93.2197H3.62367V102.994ZM19.8897 104.127C18.3791 104.127 17.1897 103.693 16.3217 102.825C15.4536 101.957 15.0196 100.672 15.0196 98.9692V92.1882H16.271V98.9185C16.271 100.316 16.5866 101.348 17.2179 102.013C17.8492 102.678 18.7398 103.011 19.8897 103.011C21.0509 103.011 21.9472 102.678 22.5785 102.013C23.2098 101.348 23.5254 100.316 23.5254 98.9185V92.1882H24.743V98.9692C24.743 100.672 24.309 101.957 23.4409 102.825C22.5841 103.693 21.4004 104.127 19.8897 104.127ZM28.5138 104.025V92.1882H29.7652V104.025H28.5138ZM33.6166 104.025V92.1882H34.868V102.943H41.4968V104.025H33.6166ZM43.5745 104.025V92.1882H48.394C49.6566 92.1882 50.7614 92.4419 51.7084 92.9492C52.6666 93.4452 53.4107 94.1385 53.9405 95.0291C54.4704 95.9197 54.7353 96.9456 54.7353 98.1068C54.7353 99.268 54.4704 100.294 53.9405 101.184C53.4107 102.075 52.6666 102.774 51.7084 103.281C50.7614 103.777 49.6566 104.025 48.394 104.025H43.5745ZM44.8259 102.943H48.3263C49.3748 102.943 50.2823 102.74 51.0489 102.334C51.8267 101.917 52.4299 101.348 52.8583 100.626C53.2867 99.8937 53.5009 99.0538 53.5009 98.1068C53.5009 97.1486 53.2867 96.3087 52.8583 95.5872C52.4299 94.8657 51.8267 94.302 51.0489 93.8961C50.2823 93.479 49.3748 93.2705 48.3263 93.2705H44.8259V102.943ZM57.5453 104.025V92.1882H58.7967V104.025H57.5453ZM62.6481 104.025V92.1882H63.6796L71.8473 102.47H71.3062V92.1882H72.5406V104.025H71.5091L63.3583 93.744H63.8995V104.025H62.6481ZM81.5957 104.127C80.6938 104.127 79.8595 103.98 79.0929 103.687C78.3376 103.383 77.6781 102.96 77.1144 102.419C76.562 101.878 76.128 101.241 75.8124 100.508C75.508 99.7753 75.3558 98.9749 75.3558 98.1068C75.3558 97.2387 75.508 96.4383 75.8124 95.7055C76.128 94.9728 76.5677 94.3358 77.1314 93.7947C77.695 93.2536 78.3545 92.8364 79.1099 92.5433C79.8764 92.2389 80.7107 92.0868 81.6126 92.0868C82.5144 92.0868 83.3374 92.2277 84.0815 92.5095C84.8368 92.7913 85.4794 93.2197 86.0092 93.7947L85.2314 94.5895C84.7353 94.0934 84.1886 93.7383 83.5911 93.5241C82.9936 93.3099 82.351 93.2028 81.6633 93.2028C80.9305 93.2028 80.2541 93.3268 79.6341 93.5749C79.0253 93.8116 78.4898 94.1554 78.0276 94.6064C77.5767 95.046 77.2215 95.5646 76.9622 96.1621C76.7142 96.7483 76.5902 97.3966 76.5902 98.1068C76.5902 98.8058 76.7142 99.454 76.9622 100.051C77.2215 100.649 77.5767 101.173 78.0276 101.624C78.4898 102.064 79.0253 102.408 79.6341 102.656C80.2541 102.892 80.9249 103.011 81.6464 103.011C82.3228 103.011 82.9598 102.909 83.5572 102.706C84.166 102.503 84.7241 102.16 85.2314 101.675L85.9416 102.622C85.3779 103.118 84.7184 103.496 83.9631 103.755C83.2078 104.003 82.4186 104.127 81.5957 104.127ZM84.741 102.47V98.1068H85.9416V102.622L84.741 102.47Z" fill="#636262"/>
</svg>
