<svg width="91" height="99" viewBox="0 0 91 99" fill="none" xmlns="http://www.w3.org/2000/svg">
<path d="M29.5391 29.9614L59.0219 0.422363L88.5609 29.9614L59.0219 59.5004L29.5391 29.9614Z" fill="#41DBF1"/>
<path d="M0 29.9614L29.539 0.422363L59.0219 29.9614L29.539 59.5004L0 29.9614Z" fill="#D7F0F4"/>
<path d="M0.92918 82.1957H4.8103C5.60606 82.1957 6.28984 82.3148 6.86164 82.5531C7.43821 82.7913 7.88136 83.144 8.19108 83.6109C8.50081 84.0779 8.65567 84.6521 8.65567 85.3335C8.65567 85.891 8.56037 86.3699 8.36977 86.7701C8.18394 87.1656 7.91948 87.4968 7.57639 87.7637C7.23808 88.0257 6.8402 88.2354 6.38276 88.3926L5.70374 88.75H2.3301L2.3158 87.0775H4.82459C5.20103 87.0775 5.51314 87.0108 5.76092 86.8774C6.0087 86.7439 6.19454 86.5581 6.31843 86.3198C6.44708 86.0816 6.51141 85.8052 6.51141 85.4907C6.51141 85.1572 6.44947 84.8689 6.32557 84.6259C6.20168 84.3829 6.01347 84.197 5.76092 84.0684C5.50837 83.9397 5.1915 83.8754 4.8103 83.8754H3.07344V92.6025H0.92918V82.1957ZM6.74728 92.6025L4.3743 87.9638L6.64007 87.9495L9.04164 92.5025V92.6025H6.74728ZM17.2899 90.93V92.6025H11.7506V90.93H17.2899ZM12.451 82.1957V92.6025H10.3068V82.1957H12.451ZM16.568 86.4342V88.0638H11.7506V86.4342H16.568ZM17.2828 82.1957V83.8754H11.7506V82.1957H17.2828ZM22.7721 83.9755L19.9416 92.6025H17.6616L21.5284 82.1957H22.9793L22.7721 83.9755ZM25.1236 92.6025L22.286 83.9755L22.0573 82.1957H23.5226L27.4108 92.6025H25.1236ZM24.995 88.7286V90.4082H19.4985V88.7286H24.995ZM35.0658 90.93V92.6025H29.8267V90.93H35.0658ZM30.52 82.1957V92.6025H28.3757V82.1957H30.52ZM46.9236 90.93V92.6025H41.3843V90.93H46.9236ZM42.0847 82.1957V92.6025H39.9405V82.1957H42.0847ZM46.2017 86.4342V88.0638H41.3843V86.4342H46.2017ZM46.9165 82.1957V83.8754H41.3843V82.1957H46.9165ZM53.5923 89.8793C53.5923 89.6935 53.5637 89.5267 53.5065 89.379C53.4541 89.2265 53.354 89.0883 53.2063 88.9644C53.0586 88.8358 52.8513 88.7095 52.5845 88.5856C52.3176 88.4617 51.9722 88.3331 51.5481 88.1997C51.0763 88.0472 50.6284 87.8756 50.2043 87.685C49.785 87.4944 49.4133 87.2729 49.0893 87.0203C48.7701 86.763 48.5175 86.4652 48.3317 86.1269C48.1506 85.7885 48.0601 85.3954 48.0601 84.9475C48.0601 84.5139 48.1554 84.1208 48.346 83.7682C48.5366 83.4108 48.8034 83.1058 49.1465 82.8533C49.4896 82.596 49.8946 82.3982 50.3616 82.26C50.8333 82.1219 51.3503 82.0528 51.9126 82.0528C52.6798 82.0528 53.3493 82.191 53.9211 82.4673C54.4929 82.7437 54.936 83.1225 55.2505 83.6038C55.5698 84.0851 55.7294 84.6354 55.7294 85.2549H53.5994C53.5994 84.9499 53.5351 84.6831 53.4064 84.4543C53.2825 84.2209 53.0919 84.0374 52.8346 83.904C52.5821 83.7706 52.2628 83.7038 51.8769 83.7038C51.5052 83.7038 51.1955 83.761 50.9477 83.8754C50.6999 83.985 50.5141 84.1351 50.3902 84.3257C50.2663 84.5115 50.2043 84.7212 50.2043 84.9547C50.2043 85.131 50.2472 85.2906 50.333 85.4336C50.4235 85.5765 50.5569 85.7099 50.7333 85.8338C50.9096 85.9577 51.1264 86.0745 51.3837 86.184C51.641 86.2936 51.9388 86.4009 52.2771 86.5057C52.8442 86.6772 53.3421 86.8702 53.771 87.0846C54.2046 87.2991 54.5667 87.5397 54.8574 87.8065C55.1481 88.0734 55.3672 88.376 55.515 88.7143C55.6627 89.0526 55.7365 89.4362 55.7365 89.865C55.7365 90.3177 55.6484 90.7227 55.4721 91.0801C55.2958 91.4375 55.0408 91.7401 54.7073 91.9879C54.3737 92.2356 53.9759 92.4239 53.5136 92.5525C53.0514 92.6812 52.5344 92.7455 51.9626 92.7455C51.448 92.7455 50.9405 92.6788 50.4402 92.5454C49.9399 92.4072 49.4848 92.1999 49.075 91.9235C48.67 91.6472 48.346 91.2945 48.103 90.8657C47.8599 90.4368 47.7384 89.9294 47.7384 89.3433H49.8898C49.8898 89.6673 49.9399 89.9413 50.0399 90.1652C50.14 90.3892 50.2806 90.5703 50.4616 90.7084C50.6475 90.8466 50.8667 90.9467 51.1192 91.0086C51.3765 91.0706 51.6577 91.1016 51.9626 91.1016C52.3343 91.1016 52.6393 91.0491 52.8775 90.9443C53.1205 90.8395 53.2992 90.6941 53.4136 90.5083C53.5327 90.3225 53.5923 90.1128 53.5923 89.8793ZM61.8477 82.1957V92.6025H59.7106V82.1957H61.8477ZM65.0498 82.1957V83.8754H56.5585V82.1957H65.0498ZM69.7314 83.9755L66.901 92.6025H64.6209L68.4877 82.1957H69.9387L69.7314 83.9755ZM72.083 92.6025L69.2454 83.9755L69.0167 82.1957H70.4819L74.3702 92.6025H72.083ZM71.9543 88.7286V90.4082H66.4578V88.7286H71.9543ZM79.1018 82.1957V92.6025H76.9647V82.1957H79.1018ZM82.3039 82.1957V83.8754H73.8127V82.1957H82.3039ZM90.5093 90.93V92.6025H84.97V90.93H90.5093ZM85.6704 82.1957V92.6025H83.5262V82.1957H85.6704ZM89.7874 86.4342V88.0638H84.97V86.4342H89.7874ZM90.5022 82.1957V83.8754H84.97V82.1957H90.5022Z" fill="#41DBF1"/>
</svg>
