<svg width="27" height="27" viewBox="0 0 27 27" fill="none" xmlns="http://www.w3.org/2000/svg">
<path d="M25.1154 18.8983C25.0468 18.8439 20.0689 15.2558 18.7026 15.5133C18.0504 15.6287 17.6774 16.0736 16.929 16.9641C16.8086 17.108 16.5193 17.4525 16.2943 17.6975C15.8214 17.5432 15.36 17.3554 14.9138 17.1356C12.6105 16.0142 10.7495 14.1532 9.62819 11.85C9.40816 11.4038 9.22037 10.9424 9.06627 10.4694C9.31211 10.2436 9.65662 9.9543 9.80379 9.83054C10.6902 9.08633 11.1359 8.71339 11.2512 8.05948C11.4879 6.70484 7.90228 1.69268 7.86465 1.64753C7.70197 1.41513 7.48966 1.22179 7.24309 1.08151C6.99651 0.94123 6.72184 0.857514 6.43894 0.836418C4.98563 0.836418 0.836426 6.21901 0.836426 7.12545C0.836426 7.17813 0.91252 12.5331 7.51596 19.2503C14.2264 25.8462 19.5806 25.9223 19.6333 25.9223C20.5406 25.9223 25.9223 21.7731 25.9223 20.3198C25.9014 20.0379 25.8182 19.7641 25.6787 19.5183C25.5391 19.2725 25.3467 19.0607 25.1154 18.8983Z" fill="white"/>
</svg>
