<svg width="41" height="41" viewBox="0 0 41 41" fill="none" xmlns="http://www.w3.org/2000/svg">
<path d="M38.1619 28.7407C38.0595 28.6595 30.6253 23.3008 28.5847 23.6854C27.6106 23.8578 27.0536 24.5222 25.9359 25.8522C25.7561 26.067 25.324 26.5815 24.9881 26.9474C24.2817 26.717 23.5927 26.4365 22.9263 26.1082C19.4864 24.4335 16.7071 21.6542 15.0325 18.2144C14.7039 17.548 14.4234 16.859 14.1933 16.1526C14.5604 15.8154 15.0749 15.3833 15.2947 15.1984C16.6185 14.087 17.2841 13.53 17.4564 12.5534C17.8098 10.5304 12.4549 3.04491 12.3987 2.97747C12.1557 2.63039 11.8387 2.34165 11.4704 2.13215C11.1022 1.92265 10.692 1.79762 10.2695 1.76611C8.099 1.76611 1.90234 9.80478 1.90234 11.1585C1.90234 11.2372 2.01599 19.2346 11.8779 29.2664C21.8997 39.1171 29.896 39.2308 29.9746 39.2308C31.3296 39.2308 39.367 33.0341 39.367 30.8637C39.3359 30.4427 39.2116 30.0338 39.0032 29.6667C38.7948 29.2995 38.5074 28.9833 38.1619 28.7407Z" fill="#7497B5"/>
</svg>
