<svg width="26" height="25" viewBox="0 0 26 25" fill="none" xmlns="http://www.w3.org/2000/svg">
<g clip-path="url(#clip0_111_767)">
<path d="M0.63589 12.0564L6.37066 14.1968L8.59036 21.3354C8.73239 21.7926 9.29147 21.9616 9.66255 21.6582L12.8592 19.0522C13.1943 18.7792 13.6716 18.7656 14.0217 19.0198L19.7874 23.2057C20.1843 23.4943 20.7467 23.2767 20.8463 22.7971L25.0699 2.48065C25.1786 1.95667 24.6637 1.51954 24.1648 1.71251L0.62917 10.7919C0.04836 11.0158 0.0534206 11.8382 0.63589 12.0564ZM8.23263 13.0574L19.4405 6.1545C19.6419 6.0308 19.8492 6.30316 19.6762 6.46361L10.4265 15.0617C10.1013 15.3643 9.89161 15.7693 9.83221 16.209L9.51712 18.544C9.47539 18.8557 9.03744 18.8867 8.95141 18.585L7.7396 14.327C7.6008 13.8413 7.80306 13.3226 8.23263 13.0574Z" fill="white"/>
</g>
<defs>
<clipPath id="clip0_111_767">
<rect width="24.8883" height="24.8883" fill="white" transform="translate(0.195801 0.0556641)"/>
</clipPath>
</defs>
</svg>
