<svg width="45" height="45" viewBox="0 0 45 45" fill="none" xmlns="http://www.w3.org/2000/svg">
<path fill-rule="evenodd" clip-rule="evenodd" d="M42.4103 42.6545H30.8052L30.0222 41.5165L19.93 26.8526L18.4371 24.6862L5.87657 6.4393L3.04663 2.32544H14.6517L15.4346 3.46007L24.8832 17.1851L26.3762 19.3548L39.5803 38.5406L42.4103 42.6545ZM37.4139 40.0269L24.6046 21.4151L23.1116 19.2453L13.2716 4.94968H8.03966L20.2054 22.626L21.6983 24.7957L32.182 40.0269H37.4139Z" fill="#4B3F3F"/>
<path d="M20.2052 22.626L21.6981 24.7957L19.9298 26.8526L6.34748 42.6545H3L18.4369 24.6862L20.2052 22.626Z" fill="#4B3F3F"/>
<path d="M41.0135 2.32544L26.3761 19.3548L24.6045 21.4117L23.1116 19.2453L24.8832 17.1851L34.7996 5.64307L37.666 2.32544H41.0135Z" fill="#4B3F3F"/>
</svg>
