<svg width="16" height="16" viewBox="0 0 16 16" fill="none" xmlns="http://www.w3.org/2000/svg">
<g clip-path="url(#clip0_89_1040)">
<path d="M8.00224 0H7.99824C3.58724 0 0.000244141 3.588 0.000244141 8C0.000244141 9.75 0.564244 11.372 1.52324 12.689L0.526244 15.661L3.60124 14.678C4.86624 15.516 6.37524 16 8.00224 16C12.4132 16 16.0002 12.411 16.0002 8C16.0002 3.589 12.4132 0 8.00224 0ZM12.6572 11.297C12.4642 11.842 11.6982 12.294 11.0872 12.426C10.6692 12.515 10.1232 12.586 8.28524 11.824C5.93424 10.85 4.42024 8.461 4.30224 8.306C4.18924 8.151 3.35224 7.041 3.35224 5.893C3.35224 4.745 3.93524 4.186 4.17024 3.946C4.36324 3.749 4.68224 3.659 4.98824 3.659C5.08724 3.659 5.17624 3.664 5.25624 3.668C5.49124 3.678 5.60924 3.692 5.76424 4.063C5.95724 4.528 6.42724 5.676 6.48324 5.794C6.54024 5.912 6.59724 6.072 6.51724 6.227C6.44224 6.387 6.37624 6.458 6.25824 6.594C6.14024 6.73 6.02824 6.834 5.91024 6.98C5.80224 7.107 5.68024 7.243 5.81624 7.478C5.95224 7.708 6.42224 8.475 7.11424 9.091C8.00724 9.886 8.73124 10.14 8.99024 10.248C9.18324 10.328 9.41324 10.309 9.55424 10.159C9.73324 9.966 9.95424 9.646 10.1792 9.331C10.3392 9.105 10.5412 9.077 10.7532 9.157C10.9692 9.232 12.1122 9.797 12.3472 9.914C12.5822 10.032 12.7372 10.088 12.7942 10.187C12.8502 10.286 12.8502 10.751 12.6572 11.297Z" fill="#4B3F3F"/>
</g>
<defs>
<clipPath id="clip0_89_1040">
<rect width="16" height="16" fill="white"/>
</clipPath>
</defs>
</svg>
